<svg width="720" height="220" viewBox="0 0 720 220" fill="none" xmlns="http://www.w3.org/2000/svg">
  <rect width="720" height="220" fill="white"/>
  <g transform="translate(20,20)">
    <path d="M110 10C74 10 39 20 10 35V105C10 151 47 191 110 210C173 191 210 151 210 105V35C181 20 146 10 110 10Z" fill="url(#shield)"/>
    <path d="M22 92H56L73 66L88 100L108 26L130 138L146 92L202 38" stroke="white" stroke-width="12" stroke-linecap="round" stroke-linejoin="round"/>
    <path d="M179 40L202 38L193 61" stroke="white" stroke-width="12" stroke-linecap="round" stroke-linejoin="round"/>
  </g>

  <g transform="translate(260,58)">
    <text x="420" y="52" text-anchor="end" font-size="74" font-weight="800" fill="#1F3B26" font-family="Arial, sans-serif">نبض الرياضة</text>
    <line x1="0" y1="88" x2="420" y2="88" stroke="#D1D5DB" stroke-width="2"/>
    <text x="420" y="136" text-anchor="end" font-size="34" font-weight="600" fill="#6B7280" font-family="Arial, sans-serif">أخبار - مباشر - فيديو - تحليلات</text>
  </g>

  <defs>
    <linearGradient id="shield" x1="10" y1="10" x2="210" y2="210" gradientUnits="userSpaceOnUse">
      <stop stop-color="#39A935"/>
      <stop offset="1" stop-color="#B9D91F"/>
    </linearGradient>
  </defs>
</svg>
